<?xml version="1.0" standalone="no"?>
<!DOCTYPE svg PUBLIC "-//W3C//DTD SVG 20010904//EN"
 "http://www.w3.org/TR/2001/REC-SVG-20010904/DTD/svg10.dtd">
<svg version="1.0" xmlns="http://www.w3.org/2000/svg"
 width="704.000000pt" height="704.000000pt" viewBox="0 0 704.000000 704.000000"
 preserveAspectRatio="xMidYMid meet">

<g transform="translate(0.000000,704.000000) scale(0.100000,-0.100000)"
fill="#000000" stroke="none">
<path d="M3364 6603 c-85 -145 -373 -617 -669 -1098 -81 -132 -184 -300 -229
-373 -44 -73 -96 -156 -114 -185 -18 -29 -37 -61 -42 -72 -6 -11 -30 -51 -55
-90 -25 -38 -54 -86 -65 -105 -11 -19 -47 -78 -79 -130 -33 -52 -100 -162
-151 -245 -101 -167 -127 -208 -212 -343 -32 -50 -58 -94 -58 -97 0 -2 -25
-43 -55 -90 -30 -46 -55 -87 -55 -89 0 -2 -23 -41 -51 -86 -27 -45 -49 -86
-47 -91 3 -8 231 175 314 252 18 16 57 70 87 121 30 51 81 136 112 188 32 52
79 131 105 175 26 44 119 199 207 345 87 146 182 303 210 350 173 291 246 408
270 429 25 21 33 23 96 18 37 -3 75 -3 83 0 18 7 68 83 192 289 125 210 116
187 92 235 -24 46 -28 19 39 244 56 186 92 310 96 328 2 10 9 32 15 50 30 93
61 209 57 214 -3 2 -45 -62 -93 -144z"/>
<path d="M3597 6713 c-2 -4 13 -66 34 -138 22 -71 62 -206 88 -300 27 -93 60
-203 72 -243 20 -64 21 -78 10 -105 -27 -66 -27 -65 121 -307 l144 -235 74 3
c41 1 86 -2 100 -8 22 -9 74 -79 112 -150 17 -31 364 -610 573 -955 87 -143
189 -313 228 -378 67 -112 78 -125 180 -209 194 -160 219 -180 224 -174 3 3
-8 27 -25 53 -17 26 -39 64 -50 83 -11 19 -87 145 -170 280 -83 135 -179 292
-215 350 -35 58 -112 184 -172 280 -59 96 -116 190 -127 209 -11 19 -36 60
-55 90 -20 31 -55 88 -78 126 -34 57 -101 168 -154 255 -21 33 -216 349 -251
405 -76 122 -348 568 -498 815 -173 286 -158 264 -165 253z"/>
<path d="M3667 5913 c-95 -100 -87 -59 -87 -427 l0 -326 59 -98 c32 -53 104
-176 161 -272 56 -96 131 -222 165 -280 35 -58 91 -153 126 -212 34 -60 66
-108 71 -108 8 0 2 242 -7 314 -3 21 -17 59 -32 85 -109 195 -203 364 -203
366 0 2 -20 38 -45 80 -25 42 -69 122 -98 178 l-52 102 -2 319 c-2 175 -4 321
-7 323 -2 2 -24 -18 -49 -44z"/>
<path d="M3315 5632 l0 -317 -44 -90 c-24 -49 -52 -101 -61 -115 -9 -14 -36
-61 -60 -105 -24 -44 -80 -145 -125 -225 -120 -212 -136 -247 -141 -304 -10
-131 -12 -296 -4 -296 5 0 22 24 38 53 56 100 110 194 227 392 65 110 141 241
170 290 29 50 73 124 99 166 l46 76 0 330 0 330 -55 59 c-30 33 -55 62 -55 67
0 4 -8 7 -17 7 -17 0 -18 -22 -18 -318z"/>
<path d="M3166 5494 c-60 -102 -118 -190 -129 -196 -12 -6 -53 -9 -101 -6 -45
3 -87 3 -94 1 -7 -3 -34 -41 -61 -86 -26 -45 -160 -266 -296 -492 -136 -225
-326 -540 -421 -699 l-174 -289 6 -52 c4 -29 10 -58 14 -65 13 -21 82 43 127
118 22 37 107 177 189 312 82 135 223 369 314 520 171 284 186 303 226 270 32
-27 16 -74 -79 -231 -51 -85 -230 -381 -396 -659 -167 -278 -315 -522 -329
-543 -20 -29 -66 -60 -221 -149 -108 -61 -215 -124 -239 -140 -37 -26 -92
-112 -468 -741 -310 -518 -424 -717 -420 -732 3 -12 15 -32 26 -45 11 -13 20
-27 20 -32 0 -4 6 -8 13 -8 7 0 31 30 54 68 22 37 136 225 253 417 117 193
278 459 359 593 80 133 162 264 181 290 34 44 151 127 170 120 5 -2 -152 -271
-348 -598 -632 -1054 -602 -1003 -595 -1030 3 -14 16 -38 28 -55 12 -16 88
-146 169 -287 81 -141 153 -261 161 -268 9 -7 109 -10 337 -8 l323 3 250 141
c138 78 268 151 290 164 22 13 103 58 180 100 77 43 271 150 430 238 160 88
299 167 310 175 20 15 20 15 -5 42 -14 15 -63 45 -110 68 -81 40 -89 41 -180
42 -149 0 -269 -45 -555 -205 -242 -137 -262 -140 -450 -80 -163 52 -157 47
-205 162 -96 232 -168 508 -185 715 -7 77 -6 85 23 147 50 106 106 180 199
259 150 128 122 86 433 642 68 121 214 380 325 575 110 195 244 432 297 525
52 94 163 289 246 435 82 147 164 295 182 330 18 36 36 73 41 82 11 22 12 315
1 322 -4 2 -57 -79 -116 -180z m-1583 -3947 c24 -51 56 -106 70 -123 45 -53
229 -129 362 -148 l80 -12 -41 -26 c-113 -72 -88 -68 -424 -68 -168 0 -310 4
-316 8 -6 4 -42 60 -79 125 l-67 117 30 48 c16 26 31 52 33 58 2 6 53 92 113
192 l109 182 43 -130 c24 -72 63 -172 87 -223z"/>
<path d="M3757 5663 c-4 -3 -7 -65 -7 -138 0 -179 -18 -137 284 -670 60 -104
188 -332 286 -505 98 -173 252 -445 342 -605 91 -159 188 -333 216 -385 28
-52 100 -180 160 -285 l109 -190 117 -105 c173 -155 246 -269 246 -386 0 -113
-55 -382 -116 -564 -42 -125 -115 -290 -133 -299 -44 -23 -243 -83 -292 -88
-67 -7 -118 14 -299 117 -322 184 -509 239 -661 194 -88 -26 -209 -98 -209
-124 0 -9 49 -38 270 -160 47 -25 207 -114 355 -196 149 -83 306 -170 350
-194 44 -24 179 -99 300 -167 l219 -123 322 0 c245 0 324 3 332 12 5 7 87 148
181 313 110 191 171 307 168 321 -4 22 -563 963 -878 1477 -42 70 -75 127 -72
127 3 0 32 -14 65 -32 68 -36 125 -90 153 -144 10 -22 38 -68 61 -104 22 -36
90 -146 149 -245 138 -230 187 -308 200 -317 5 -4 7 -8 3 -8 -4 0 57 -105 134
-232 78 -128 152 -252 165 -276 14 -23 29 -42 34 -42 5 0 8 -4 6 -9 -2 -10 45
-91 53 -91 9 1 61 93 62 109 1 17 -710 1204 -724 1209 -4 2 -8 10 -8 18 0 22
-95 175 -127 205 -36 34 -247 160 -395 236 -14 7 -44 31 -65 52 -43 45 -853
1386 -853 1414 0 45 42 73 76 49 6 -4 108 -171 228 -372 397 -664 475 -787
519 -824 23 -19 46 -31 50 -27 5 5 11 35 14 68 5 53 2 64 -23 104 -26 42 -144
237 -654 1084 -122 204 -233 384 -246 402 l-24 32 -85 -6 c-108 -8 -117 -1
-191 124 -151 260 -153 261 -167 246z m1952 -3960 c56 -95 102 -176 102 -180
1 -5 14 -27 30 -50 16 -23 29 -47 29 -54 0 -15 -106 -206 -128 -231 -14 -16
-42 -18 -327 -18 l-311 0 -54 35 c-30 19 -61 35 -69 35 -28 0 11 30 40 30 77
0 314 96 366 149 49 48 137 252 199 460 6 20 9 16 123 -176z"/>
<path d="M3373 4793 c-44 -76 -111 -194 -150 -263 -39 -69 -111 -197 -161
-285 -50 -88 -93 -167 -97 -175 -3 -8 -47 -37 -99 -63 -154 -80 -330 -222
-434 -350 -105 -130 -151 -199 -219 -332 -69 -133 -133 -321 -159 -470 -25
-137 -25 -460 -1 -595 29 -160 113 -410 138 -410 13 0 211 110 220 123 3 5 -7
43 -23 84 -64 164 -107 427 -94 563 4 36 9 90 12 120 7 69 46 226 80 322 67
187 190 375 336 514 175 168 448 301 660 321 38 3 71 10 74 14 6 10 7 1010 1
1016 -3 2 -40 -58 -84 -134z"/>
<path d="M3582 4419 l3 -514 75 -7 c303 -31 640 -240 827 -515 140 -204 208
-375 248 -620 35 -213 1 -513 -82 -720 l-26 -66 23 -17 c30 -22 195 -110 208
-110 6 0 15 12 20 28 6 15 20 52 32 82 29 77 77 270 90 365 12 86 15 349 5
424 -61 461 -276 852 -620 1124 -55 44 -109 84 -120 89 -11 5 -56 28 -99 51
l-79 42 -64 115 c-36 63 -113 201 -173 305 -59 105 -120 213 -135 240 -16 28
-45 79 -67 114 -21 34 -38 67 -38 71 0 4 -7 13 -15 20 -14 11 -15 -44 -13
-501z"/>
<path d="M1566 3409 c-132 -76 -245 -144 -252 -151 -7 -7 -144 -227 -304 -488
-161 -261 -327 -531 -370 -600 -74 -119 -201 -326 -278 -454 l-36 -58 24 -47
c14 -25 41 -73 61 -106 31 -52 74 -128 114 -200 6 -11 44 -76 84 -145 106
-181 176 -300 199 -340 158 -279 149 -267 195 -273 23 -3 213 -4 422 -2 l380
3 134 76 c73 42 135 76 137 76 1 0 45 24 96 54 105 60 387 219 463 261 28 15
86 49 130 74 44 26 93 52 108 59 15 7 26 16 23 21 -3 5 -44 28 -91 50 l-85 42
-63 -34 c-34 -18 -93 -52 -132 -74 -79 -45 -83 -47 -475 -265 l-285 -158 -347
0 -348 0 -23 38 c-13 20 -90 152 -172 292 -81 140 -189 328 -241 416 -52 89
-94 168 -94 175 0 16 34 77 113 206 32 51 65 107 76 125 10 18 114 191 231
383 117 193 261 432 321 531 60 100 120 196 135 213 27 33 64 56 314 199 72
41 108 67 114 84 5 14 5 55 2 91 -6 54 -11 67 -24 66 -9 0 -125 -63 -256 -140z"/>
<path d="M5200 3462 l0 -88 163 -94 c239 -138 259 -153 298 -216 19 -31 43
-70 54 -87 17 -28 71 -116 125 -208 30 -50 179 -297 305 -504 71 -115 142
-234 159 -262 17 -29 59 -99 92 -155 34 -57 74 -124 88 -150 l27 -47 -99 -173
c-55 -95 -150 -261 -212 -368 -62 -107 -122 -211 -133 -230 -10 -19 -35 -61
-55 -92 l-35 -58 -342 0 c-388 0 -354 -6 -520 90 -55 32 -120 69 -145 83 -345
191 -563 313 -604 338 -28 17 -31 17 -79 -2 -96 -38 -138 -60 -135 -71 2 -6
22 -20 43 -32 83 -45 183 -101 270 -152 50 -28 146 -83 215 -122 69 -38 224
-125 345 -193 l220 -124 414 2 c327 1 417 5 427 15 7 7 55 87 107 178 52 91
152 264 222 385 128 220 272 471 293 511 10 18 4 33 -42 106 -29 47 -74 118
-98 159 -61 100 -140 229 -363 589 -103 168 -206 335 -229 373 -22 37 -70 114
-106 172 -36 57 -81 131 -102 164 -37 60 -57 77 -173 141 -33 18 -130 73 -214
122 -85 48 -161 88 -168 88 -10 0 -13 -22 -13 -88z"/>
<path d="M3422 2889 c-87 -44 -151 -155 -138 -245 6 -48 36 -113 60 -133 23
-19 20 -50 -14 -124 -35 -78 -36 -88 -12 -110 33 -30 29 -32 253 122 104 71
167 139 184 195 22 72 19 118 -11 173 -32 62 -68 98 -119 123 -57 27 -146 27
-203 -1z"/>
<path d="M2955 1071 c-44 -27 -160 -94 -257 -151 -98 -56 -178 -106 -178 -110
0 -15 145 -103 255 -155 122 -58 255 -107 357 -130 79 -18 309 -46 320 -39 4
3 8 122 8 264 l0 260 -22 4 c-13 3 -45 8 -73 12 -106 15 -226 49 -285 79 -16
8 -33 15 -37 14 -4 0 -44 -22 -88 -48z"/>
<path d="M3955 1099 c-56 -28 -156 -56 -250 -69 -44 -7 -90 -14 -103 -16 l-22
-4 2 -258 3 -257 90 1 c178 3 389 58 593 155 136 64 254 138 250 158 -3 14
-145 101 -410 251 -59 33 -108 60 -110 60 -2 -1 -21 -10 -43 -21z"/>
</g>
</svg>
